<svg width="81" height="61" viewBox="0 0 81 61" fill="none" xmlns="http://www.w3.org/2000/svg">
<path d="M31.6598 45.636C34.1959 41.8817 40.9128 29.9292 55.1766 29.9292C69.4404 29.9292 77.6944 42.3414 79.9999 45.7126" stroke="white"/>
<path d="M31.583 45.2529C34.1151 48.8777 41.9346 55.9028 56.1758 55.9028C70.4169 55.9028 77.6981 48.5844 80 45.3295" stroke="white"/>
<path d="M38.6534 51.8641L70.0092 34.8328" stroke="white"/>
<path d="M60.8638 39.7363C54.5926 43.3527 54.485 53.1446 60.8638 55.5197C62.0678 55.4687 65.1675 55.0753 67.9342 53.9107C71.4694 52.4226 72.7759 51.9953 75.9269 49.4669C78.0787 40.196 67.135 36.1199 60.8638 39.7363Z" fill="#FF4944" stroke="white"/>
<path d="M31.6598 45.636C34.1959 41.8817 40.9128 29.9292 55.1766 29.9292C69.4404 29.9292 77.6944 42.3414 79.9999 45.7126" stroke="white"/>
<path d="M31.583 45.2529C34.1151 48.8777 41.9346 55.9028 56.1758 55.9028C70.4169 55.9028 77.6981 48.5844 80 45.3295" stroke="white"/>
<path d="M38.6534 51.8641L70.0092 34.8328" stroke="white"/>
<path d="M60.8638 39.7363C54.5926 43.3527 54.485 53.1446 60.8638 55.5197C62.0678 55.4687 65.1675 55.0753 67.9342 53.9107C71.4694 52.4226 72.7759 51.9953 75.9269 49.4669C78.0787 40.196 67.135 36.1199 60.8638 39.7363Z" fill="#FF4944" stroke="white"/>
<path d="M2.78748 1V34.4597L28.4057 60M2.78748 1H36.3493L59.2866 23.8674M2.78748 1L28.4057 26.5403M28.4057 26.5403L59.2866 23.8674M28.4057 26.5403V60M59.2866 23.8674V30.104M28.4057 60H59.2866V56.0403" stroke="white"/>
<path d="M2.78748 1V34.4597L28.4057 60M2.78748 1H36.3493L59.2866 23.8674M2.78748 1L28.4057 26.5403M28.4057 26.5403L59.2866 23.8674M28.4057 26.5403V60M59.2866 23.8674V30.104M28.4057 60H59.2866V56.0403" stroke="white"/>
<path d="M10.1352 42.1812V57.5251L1 48.4177" stroke="white"/>
<path d="M10.1353 41.6863V57.5252L1.29797 48.7148" stroke="white"/>
<path d="M3.03308 1.57849L28.011 26.7403V59.4216L3.03308 34.2599L3.03308 1.57849Z" fill="#FF4944"/>
</svg>
