<svg id="Layer_1" data-name="Layer 1" xmlns="http://www.w3.org/2000/svg" viewBox="0 0 1000 1000"><defs><style>.cls-1{fill:#fff;}</style></defs><title>iff_logo_horizontal_white</title><path class="cls-1" d="M491.86,427.71H475.72v-62.1h16.14Z"/><path class="cls-1" d="M514,365.61h16.14l29.57,38h.16v-38H576v62.1H559.89l-29.57-38h-.16v38H514Z"/><path class="cls-1" d="M622.89,427.71H606.75V379.28H593.41V365.61h42.82v13.67H622.89Z"/><path class="cls-1" d="M669.83,379.28v10.38H688v13.67H669.83V414H689v13.67H653.69v-62.1H689v13.67Z"/><path class="cls-1" d="M762.24,427.71h-20.1l-15.23-23.88h-.17v23.88H710.6v-62.1h24.13c12.27,0,21.58,5.85,21.58,19.11,0,8.56-4.78,16-13.59,17.54Zm-35.5-34.26h1.57c5.27,0,11.2-1,11.2-7.74s-5.93-7.75-11.2-7.75h-1.57Z"/><path class="cls-1" d="M778.21,365.61h16.15l29.56,38h.17v-38h16.14v62.1H824.09l-29.57-38h-.16v38H778.21Z"/><path class="cls-1" d="M878.52,379.28v10.38h18.21v13.67H878.52V414h19.19v13.67H862.38v-62.1h35.33v13.67Z"/><path class="cls-1" d="M944,427.71H927.85V379.28H914.51V365.61h42.83v13.67H944Z"/><path class="cls-1" d="M493,488.37v10.37h17.71v13.68H493v24.37H476.81v-62.1h35.66v13.68Z"/><path class="cls-1" d="M586.59,536.79H566.5l-15.24-23.88h-.17v23.88H535v-62.1h24.13c12.28,0,21.58,5.85,21.58,19.11,0,8.57-4.78,16-13.59,17.54Zm-35.5-34.26h1.57c5.27,0,11.2-1,11.2-7.74s-5.93-7.74-11.2-7.74h-1.57Z"/><path class="cls-1" d="M620.6,488.37v10.37h18.2v13.68H620.6v10.7h19.19v13.67H604.46v-62.1h35.33v13.68Z"/><path class="cls-1" d="M679.4,488.37v10.37h18.2v13.68H679.4v10.7h19.19v13.67H663.26v-62.1h35.33v13.68Z"/><path class="cls-1" d="M722.06,474.69H745c17.29,0,31.54,13.59,31.54,31.05s-14.33,31-31.54,31h-22.9Zm16.14,48.43h3.63c9.63,0,17.87-5.27,17.87-17.38,0-11.11-7.33-17.37-17.71-17.37H738.2Z"/><path class="cls-1" d="M863.06,504.59c0,20.1-14.41,34.26-34.34,34.26s-34.35-14.16-34.35-34.26c0-18.78,16.47-31.95,34.35-31.95S863.06,485.81,863.06,504.59Zm-51.89.08c0,10.71,7.91,18.53,17.55,18.53s17.54-7.82,17.54-18.53c0-8.56-7.91-16.39-17.54-16.39S811.17,496.11,811.17,504.67Z"/><path class="cls-1" d="M890.89,474.69h15.9l12.6,33.19,13.34-33.19h16.06l9.39,62.1H942l-4.53-35.74h-.17l-14.9,35.74H916l-14.24-35.74h-.17l-5.19,35.74H880.35Z"/><path class="cls-1" d="M486.36,591.78v10.94h14v8.43h-14V633h-9.69V583.35h24.64v8.43Z"/><path class="cls-1" d="M538.6,634.34c-15.15,0-24.57-11.6-24.57-26.22S523.78,582,538.6,582s24.57,11.33,24.57,26.09S553.75,634.34,538.6,634.34Zm0-42.76c-9.15,0-14.56,8.11-14.56,16.14,0,7.64,3.83,17.07,14.56,17.07s14.56-9.43,14.56-17.07C553.16,599.69,547.76,591.58,538.6,591.58Z"/><path class="cls-1" d="M576.89,583.35h9.68v27.8c0,6.13.53,14.76,8.76,14.76s8.76-8.63,8.76-14.76v-27.8h9.69v29.71c0,12.12-5.14,21.28-18.45,21.28s-18.44-9.16-18.44-21.28Z"/><path class="cls-1" d="M629.86,582h7L663,616.75h.13v-33.4h9.68V634h-7l-26.15-34.72h-.13V633h-9.68Z"/><path class="cls-1" d="M689.08,583.35h13.84c14.36,0,24,10.74,24,24.9,0,14-9.88,24.77-24,24.77H689.08Zm9.69,41.24h1.58c11.92,0,16.53-6.59,16.53-16.41,0-10.8-5.53-16.4-16.53-16.4h-1.58Z"/><path class="cls-1" d="M751,622.55,746.93,633H736.72l19.37-51h7.51l18.84,51H772.09l-3.82-10.47Zm8.37-26h-.13l-5.47,18h11.79Z"/><path class="cls-1" d="M805.5,633h-9.68V591.78h-10v-8.43h29.7v8.43h-10Z"/><path class="cls-1" d="M838,633H828.3V583.35H838Z"/><path class="cls-1" d="M876.46,634.34c-15.15,0-24.57-11.6-24.57-26.22S861.64,582,876.46,582,901,593.36,901,608.12,891.61,634.34,876.46,634.34Zm0-42.76c-9.16,0-14.56,8.11-14.56,16.14,0,7.64,3.82,17.07,14.56,17.07S891,615.36,891,607.72C891,599.69,885.61,591.58,876.46,591.58Z"/><path class="cls-1" d="M915,582h7l26.15,34.72h.13v-33.4H958V634h-7l-26.15-34.72h-.13V633H915Z"/><path class="cls-1" d="M146.72,328.88C52.22,377,14.63,492.68,62.79,587.19S226.61,719.28,321.1,671.13,453.18,507.31,405,412.81,241.24,280.72,146.72,328.88ZM400.4,463.65a3.56,3.56,0,0,0-.47.05A9.89,9.89,0,1,0,403,483.23l.45-.09a169,169,0,0,1,0,33.73l-.44-.09a9.89,9.89,0,0,0-3.1,19.53,3,3,0,0,0,.43,0,170.75,170.75,0,0,1-10.42,32.08,3.6,3.6,0,0,0-.37-.22,9.89,9.89,0,1,0-9,17.63l.4.18a171.42,171.42,0,0,1-19.8,27.3c-.1-.12-.22-.24-.33-.35a9.89,9.89,0,0,0-14,14l.33.32a170.31,170.31,0,0,1-27.29,19.8,3.39,3.39,0,0,0-.18-.39,9.88,9.88,0,0,0-17.61,9,3.41,3.41,0,0,0,.21.38,169.46,169.46,0,0,1-32.06,10.44c0-.16,0-.3-.06-.45a9.88,9.88,0,1,0-19.52,3.08,2.6,2.6,0,0,0,.09.47,170.68,170.68,0,0,1-33.75,0,3.82,3.82,0,0,0,.09-.44,9.88,9.88,0,1,0-19.51-3.1,3,3,0,0,0,0,.42A169.1,169.1,0,0,1,165.5,656c.07-.11.14-.24.2-.36a9.88,9.88,0,1,0-17.6-9,2,2,0,0,0-.19.41,169.53,169.53,0,0,1-27.3-19.81c.12-.1.23-.21.34-.32a9.89,9.89,0,0,0-14-14,3,3,0,0,0-.3.34A168.79,168.79,0,0,1,86.85,586l.39-.18a9.88,9.88,0,1,0-9-17.61,3.25,3.25,0,0,0-.37.21,169.45,169.45,0,0,1-10.45-32.08,3.73,3.73,0,0,0,.46,0,9.89,9.89,0,0,0-3.1-19.54l-.45.09a169.06,169.06,0,0,1,0-33.74,2.73,2.73,0,0,0,.44.1,9.89,9.89,0,0,0,3.08-19.53,3,3,0,0,0-.41,0,169.44,169.44,0,0,1,10.41-32.07l.38.21a9.88,9.88,0,1,0,9-17.62l-.41-.18a168.69,168.69,0,0,1,19.83-27.31,3.59,3.59,0,0,0,.32.35,9.88,9.88,0,1,0,14-14,3.59,3.59,0,0,0-.35-.32,169.93,169.93,0,0,1,27.31-19.81,3.75,3.75,0,0,0,.19.41,9.88,9.88,0,1,0,17.61-9c-.07-.13-.14-.26-.22-.39a169.41,169.41,0,0,1,32.08-10.44,3.56,3.56,0,0,0,.05.47,9.89,9.89,0,0,0,19.53-3.1,3.89,3.89,0,0,0-.09-.47,168.22,168.22,0,0,1,33.73,0c0,.15-.07.29-.09.43a9.89,9.89,0,1,0,19.53,3.1l.06-.43A169.64,169.64,0,0,1,302.34,344a2.77,2.77,0,0,0-.22.37,9.89,9.89,0,0,0,17.62,9c.07-.13.13-.27.19-.41a169.53,169.53,0,0,1,27.3,19.81c-.12.1-.23.21-.34.32a9.89,9.89,0,1,0,14,14,3.59,3.59,0,0,0,.32-.35A169.32,169.32,0,0,1,381,414a2.93,2.93,0,0,0-.4.19,9.88,9.88,0,1,0,9,17.61c.13-.07.27-.14.39-.22A169.45,169.45,0,0,1,400.4,463.65Z"/><path class="cls-1" d="M239.64,422.48c-2-.16-4.1-.25-6.19-.25-1.78,0-3.54.07-5.29.18l4.93-91.76Z"/><path class="cls-1" d="M239.61,578.45l-4.88,90.89-6.47-90.83c1.71.13,3.44.18,5.19.18C235.52,578.69,237.58,578.61,239.61,578.45Z"/><path class="cls-1" d="M215.35,424.36a73.65,73.65,0,0,0-10.94,3.46l-23.6-88.62Z"/><path class="cls-1" d="M287,660.8l-34.29-84.49a77.76,77.76,0,0,0,10.8-3.61Z"/><path class="cls-1" d="M192.76,433.65a75.36,75.36,0,0,0-9.32,6.64l-49.73-76.81Z"/><path class="cls-1" d="M334.12,636.51l-58.85-69.92a76.25,76.25,0,0,0,9.17-6.79Z"/><path class="cls-1" d="M174.09,449.49a79.42,79.42,0,0,0-6.79,9.18L96.42,401.13Z"/><path class="cls-1" d="M371.4,598.87l-77.75-48.44a76.88,76.88,0,0,0,6.64-9.29Z"/><path class="cls-1" d="M161.19,470.41a75.8,75.8,0,0,0-3.58,10.79l-85-32.74Z"/><path class="cls-1" d="M395.21,551.55l-89.07-22.09a74.52,74.52,0,0,0,3.44-10.92Z"/><path class="cls-1" d="M155.21,500.47c0,1.76.07,3.49.18,5.22l-90.82-4.87,90.89-6.49C155.29,496.35,155.21,498.41,155.21,500.47Z"/><path class="cls-1" d="M311.51,505.71c.11-1.73.18-3.48.18-5.24,0-2.09-.09-4.16-.25-6.22l91.81,4.92Z"/><path class="cls-1" d="M160.86,529.71l-87.74,23.4L157.4,518.9A77.79,77.79,0,0,0,160.86,529.71Z"/><path class="cls-1" d="M394.7,446.89l-85.34,34.62a73.59,73.59,0,0,0-3.59-10.9Z"/><path class="cls-1" d="M173.59,550.84,97.4,600.21l69.54-58.53A75.84,75.84,0,0,0,173.59,550.84Z"/><path class="cls-1" d="M370.42,399.8l-70.53,59.35a76.62,76.62,0,0,0-6.77-9.29Z"/><path class="cls-1" d="M192.27,567l-57.22,70.48,48-77.13A81.7,81.7,0,0,0,192.27,567Z"/><path class="cls-1" d="M332.79,362.51,284,440.78a78.52,78.52,0,0,0-9.29-6.77Z"/><path class="cls-1" d="M215,576.5l-32.66,84.81,21.86-88.25A76.33,76.33,0,0,0,215,576.5Z"/><path class="cls-1" d="M285.46,338.69l-22.17,89.44a76.18,76.18,0,0,0-10.92-3.57Z"/><path class="cls-1" d="M233.91,432.78A67.22,67.22,0,1,0,301.13,500,67.29,67.29,0,0,0,233.91,432.78Zm-16.09,11.43a61.14,61.14,0,0,0-13.24,18.84H189A58.09,58.09,0,0,1,217.82,444.21Zm-35.1,28h18.33a91.52,91.52,0,0,0-4,23H175.85A57.49,57.49,0,0,1,182.72,472.25ZM182,526.4a57.42,57.42,0,0,1-6.18-22H197.1a98.12,98.12,0,0,0,3.52,22Zm5.86,9.19h16a58.43,58.43,0,0,0,13.37,20A58.19,58.19,0,0,1,187.86,535.59Zm40.49,17.17c-5.82-3.79-10.71-9.8-14.42-17.17h14.42Zm0-26.36H210.13a83.59,83.59,0,0,1-4-22h22.27Zm0-31.18H206.08a79.42,79.42,0,0,1,4.46-23h17.81Zm0-32.17H214.69a48.41,48.41,0,0,1,13.66-15.77Zm56.76,9.2a57.48,57.48,0,0,1,6.86,23H270.63a85.07,85.07,0,0,0-4.5-23Zm-6.25-9.2H262.24a64.29,64.29,0,0,0-14.89-19.53A58.17,58.17,0,0,1,278.86,463.05Zm-41.55-15.84A52.79,52.79,0,0,1,252,463.05H237.31Zm0,25h19.22a74.17,74.17,0,0,1,5.12,23H237.31Zm0,32.16h24.41a74.21,74.21,0,0,1-4.52,22H237.31Zm0,47.95V535.59h15.54A49.87,49.87,0,0,1,237.31,552.36Zm9.6,4.24a61.7,61.7,0,0,0,16.12-21H280A58.34,58.34,0,0,1,246.91,556.6Zm19.8-30.2a84.88,84.88,0,0,0,4-22H292a57.6,57.6,0,0,1-6.18,22Z"/></svg>