<svg width="51" height="51" viewBox="0 0 51 51" fill="none" xmlns="http://www.w3.org/2000/svg">
<g clip-path="url(#clip0)">
<path d="M50.9501 14.9941C50.8307 12.2843 50.3924 10.4213 49.7647 8.80703C49.1171 7.0935 48.1208 5.55937 46.8155 4.28404C45.5402 2.98887 43.996 1.98246 42.3023 1.34499C40.6786 0.71725 38.8254 0.279039 36.1156 0.159562C33.3855 0.0299665 32.5188 0 25.5946 0C18.6704 0 17.8037 0.0299665 15.0838 0.149443C12.3739 0.26892 10.5109 0.70752 8.89704 1.33487C7.18311 1.98246 5.64898 2.97875 4.37365 4.28404C3.07848 5.55937 2.07246 7.10361 1.4346 8.7973C0.806865 10.4213 0.368653 12.2742 0.249177 14.984C0.119581 17.7141 0.0896149 18.5808 0.0896149 25.505C0.0896149 32.4292 0.119581 33.2959 0.239058 36.0158C0.358535 38.7257 0.797135 40.5886 1.42487 42.2029C2.07246 43.9165 3.07848 45.4506 4.37365 46.7259C5.64898 48.0211 7.19323 49.0275 8.88692 49.665C10.5109 50.2927 12.3638 50.7309 15.074 50.8504C17.7936 50.9703 18.6607 50.9998 25.5849 50.9998C32.5091 50.9998 33.3758 50.9703 36.0957 50.8504C38.8055 50.7309 40.6685 50.2927 42.2824 49.665C45.7099 48.3398 48.4197 45.63 49.7449 42.2029C50.3722 40.5789 50.8108 38.7257 50.9303 36.0158C51.0498 33.2959 51.0797 32.4292 51.0797 25.505C51.0797 18.5808 51.0696 17.7141 50.9501 14.9941ZM46.3575 35.8166C46.2477 38.3073 45.8294 39.6523 45.4807 40.5489C44.6237 42.7707 42.8603 44.5341 40.6385 45.3911C39.7419 45.7398 38.3872 46.1581 35.9062 46.2675C33.2162 46.3873 32.4094 46.4169 25.6047 46.4169C18.8 46.4169 17.9831 46.3873 15.3029 46.2675C12.8121 46.1581 11.4671 45.7398 10.5705 45.3911C9.46484 44.9824 8.45844 44.3348 7.64156 43.488C6.79471 42.661 6.14712 41.6647 5.73849 40.5591C5.38979 39.6624 4.97143 38.3073 4.86207 35.8267C4.7422 33.1367 4.71263 32.3296 4.71263 25.5248C4.71263 18.7201 4.7422 17.9032 4.86207 15.2234C4.97143 12.7326 5.38979 11.3877 5.73849 10.491C6.14712 9.38496 6.79471 8.37894 7.65168 7.56167C8.47828 6.71483 9.47457 6.06724 10.5806 5.659C11.4773 5.31029 12.8324 4.89193 15.313 4.78218C18.003 4.66271 18.8101 4.63274 25.6144 4.63274C32.4293 4.63274 33.236 4.66271 35.9163 4.78218C38.407 4.89193 39.752 5.31029 40.6487 5.659C41.7543 6.06724 42.7607 6.71483 43.5776 7.56167C44.4244 8.38867 45.072 9.38496 45.4807 10.491C45.8294 11.3877 46.2477 12.7424 46.3575 15.2234C46.4769 17.9133 46.5069 18.7201 46.5069 25.5248C46.5069 32.3296 46.4769 33.1266 46.3575 35.8166Z" fill="white"/>
<path d="M25.5946 12.4038C18.3617 12.4038 12.4934 18.2718 12.4934 25.505C12.4934 32.7382 18.3617 38.6062 25.5946 38.6062C32.8278 38.6062 38.6958 32.7382 38.6958 25.505C38.6958 18.2718 32.8278 12.4038 25.5946 12.4038ZM25.5946 34.0034C20.9023 34.0034 17.0962 30.1977 17.0962 25.505C17.0962 20.8123 20.9023 17.0066 25.5946 17.0066C30.2872 17.0066 34.093 20.8123 34.093 25.505C34.093 30.1977 30.2872 34.0034 25.5946 34.0034Z" fill="white"/>
<path d="M42.2727 11.8859C42.2727 13.5749 40.9032 14.9444 39.2138 14.9444C37.5248 14.9444 36.1553 13.5749 36.1553 11.8859C36.1553 10.1965 37.5248 8.82739 39.2138 8.82739C40.9032 8.82739 42.2727 10.1965 42.2727 11.8859Z" fill="white"/>
</g>
<defs>
<clipPath id="clip0">
<rect width="51" height="51" fill="white"/>
</clipPath>
</defs>
</svg>
