<svg width="53" height="43" viewBox="0 0 53 43" fill="none" xmlns="http://www.w3.org/2000/svg">
<path d="M52.975 5.68681C51.0073 6.51875 48.9107 7.07019 46.7247 7.33794C48.9735 6.04381 50.6898 4.01019 51.4968 1.559C49.4001 2.76387 47.0852 3.61494 44.6181 4.08988C42.6273 2.04669 39.7899 0.78125 36.6945 0.78125C30.6889 0.78125 25.854 5.47963 25.854 11.2394C25.854 12.0682 25.9268 12.8651 26.1054 13.6237C17.0871 13.1997 9.10723 9.03369 3.74653 2.68738C2.81064 4.25244 2.26168 6.04381 2.26168 7.97225C2.26168 11.5933 4.19629 14.8031 7.08002 16.6614C5.33722 16.6295 3.62748 16.1418 2.179 15.3736C2.179 15.4055 2.179 15.4469 2.179 15.4884C2.179 20.5693 5.93909 24.7895 10.8699 25.7617C9.9869 25.9944 9.02456 26.1059 8.02583 26.1059C7.33136 26.1059 6.63026 26.0677 5.97217 25.9274C7.37765 30.068 11.3659 33.1121 16.1082 33.2109C12.4176 35.9936 7.73151 37.6702 2.65852 37.6702C1.76893 37.6702 0.915714 37.6319 0.0625 37.5267C4.86762 40.5134 10.5623 42.2188 16.7035 42.2188C36.6647 42.2188 47.5779 26.2812 47.5779 12.4666C47.5779 12.0044 47.5614 11.5582 47.5382 11.1151C49.6911 9.6425 51.5001 7.80331 52.975 5.68681Z" fill="white"/>
</svg>
