<?xml version="1.0" encoding="UTF-8"?>
<svg width="50px" height="36px" viewBox="0 0 50 36" version="1.1" xmlns="http://www.w3.org/2000/svg" xmlns:xlink="http://www.w3.org/1999/xlink">
    <!-- Generator: Sketch 61.2 (89653) - https://sketch.com -->
    <title>youtube</title>
    <desc>Created with Sketch.</desc>
    <g id="Page-1" stroke="none" stroke-width="1" fill="none" fill-rule="evenodd">
        <g id="youtube" transform="translate(0.000000, 0.000000)" fill="#FFFFFF" fill-rule="nonzero">
            <path d="M48.9697266,5.54962156 C48.3935547,3.40759281 46.7047119,1.71905516 44.5629883,1.14227297 C40.6503296,0.0717163281 24.9993897,0.0717163281 24.9993897,0.0717163281 C24.9993897,0.0717163281 9.34906008,0.0717163281 5.43640141,1.10168453 C3.33587648,1.67785641 1.605835,3.40789797 1.02966312,5.54962156 C-1.38777878e-16,9.46197508 -1.38777878e-16,17.5756836 -1.38777878e-16,17.5756836 C-1.38777878e-16,17.5756836 -1.38777878e-16,25.7302856 1.02966312,29.6017456 C1.60644531,31.7434692 3.29467773,33.4320069 5.43670656,34.0087891 C9.39025875,35.0796509 25,35.0796509 25,35.0796509 C25,35.0796509 40.6503296,35.0796509 44.5629883,34.0496827 C46.7050171,33.4732055 48.3935547,31.784668 48.9703369,29.6429444 C49.999905,25.7302856 49.999905,17.6168823 49.999905,17.6168823 C49.999905,17.6168823 50.0408936,9.46197508 48.9697266,5.54962156 L48.9697266,5.54962156 Z M20.0164795,25.0714111 L20.0164795,10.0799561 L33.0310059,17.5756836 L20.0164795,25.0714111 Z" id="Shape"></path>
        </g>
    </g>
</svg>